<svg width="17" height="17" viewBox="0 0 17 17" fill="none" xmlns="http://www.w3.org/2000/svg">
<path fill-rule="evenodd" clip-rule="evenodd" d="M12.0618 10.8143L16.334 15.0866C16.4841 15.2368 16.5685 15.4406 16.5684 15.653C16.5683 15.8655 16.4839 16.0692 16.3336 16.2194C16.1833 16.3695 15.9796 16.4538 15.7671 16.4538C15.5547 16.4537 15.351 16.3692 15.2008 16.219L10.9287 11.9467C9.65157 12.9359 8.04559 13.4014 6.43746 13.2485C4.82933 13.0956 3.33983 12.3358 2.27199 11.1237C1.20415 9.91157 0.63818 8.33816 0.689209 6.72354C0.740237 5.10892 1.40444 3.57438 2.54668 2.43211C3.68893 1.28983 5.22343 0.625615 6.83801 0.574585C8.45259 0.523555 10.026 1.08954 11.2381 2.15741C12.4502 3.22528 13.2099 4.71481 13.3628 6.32298C13.5157 7.93115 13.051 9.53717 12.0618 10.8143ZM7.03927 11.6886C8.30289 11.6886 9.51476 11.1866 10.4083 10.2931C11.3018 9.39956 11.8038 8.18766 11.8038 6.92401C11.8038 5.66036 11.3018 4.44847 10.4083 3.55493C9.51476 2.66139 8.30289 2.15941 7.03927 2.15941C5.77565 2.15941 4.56379 2.66139 3.67027 3.55493C2.77676 4.44847 2.27479 5.66036 2.27479 6.92401C2.27479 8.18766 2.77676 9.39956 3.67027 10.2931C4.56379 11.1866 5.77565 11.6886 7.03927 11.6886Z" fill="#1296B0"/>
</svg>
